<?xml version="1.0" encoding="iso-8859-1"?>
<!-- Generator: Adobe Illustrator 17.1.0, SVG Export Plug-In . SVG Version: 6.00 Build 0)  -->
<!DOCTYPE svg PUBLIC "-//W3C//DTD SVG 1.1//EN" "http://www.w3.org/Graphics/SVG/1.1/DTD/svg11.dtd">
<svg version="1.1" id="Capa_1" xmlns="http://www.w3.org/2000/svg" xmlns:xlink="http://www.w3.org/1999/xlink" x="0px" y="0px"
	 viewBox="0 0 64 64" style="enable-background:new 0 0 64 64;" xml:space="preserve">
<path d="M24.774,28.161c-2.403,0-4.351,1.947-4.351,4.351v12.69c0,2.402,1.948,4.351,4.351,4.351h0.648
	c2.403,0,4.351-1.948,4.351-4.351v-12.69c0-2.403-1.948-4.351-4.351-4.351H24.774z"/>
<path d="M39.035,49.553h0.648c2.403,0,4.351-1.948,4.351-4.351V25.26c0-2.402-1.948-4.351-4.351-4.351h-0.648
	c-2.403,0-4.351,1.948-4.351,4.351v19.942C34.685,47.604,36.633,49.553,39.035,49.553z"/>
<path d="M53.945,10.758h-0.649c-2.402,0-4.35,1.948-4.35,4.351v30.094c0,2.402,1.948,4.351,4.35,4.351h0.649
	c2.403,0,4.351-1.948,4.351-4.351V15.108C58.296,12.706,56.348,10.758,53.945,10.758z"/>
<path d="M16.371,45.202v-7.494c0-2.402-1.949-4.351-4.351-4.351h-0.648c-2.403,0-4.351,1.948-4.351,4.351v7.494
	c0,2.402,1.949,4.351,4.351,4.351h0.648C14.422,49.553,16.371,47.604,16.371,45.202z"/>
<path d="M8.361,28.481l3.241-3.241l3.24,3.241c0.537,0.537,1.407,0.537,1.944,0c0.538-0.537,0.537-1.407,0-1.944l-3.24-3.24
	l3.24-3.24c0.537-0.537,0.537-1.407,0-1.944s-1.407-0.537-1.944,0l-3.24,3.24l-3.241-3.24c-0.537-0.537-1.407-0.537-1.944,0
	c-0.537,0.537-0.537,1.406,0,1.943l3.241,3.241l-3.24,3.24c-0.537,0.537-0.537,1.407,0,1.944
	C6.954,29.018,7.825,29.018,8.361,28.481z"/>
</svg>
