<?xml version="1.0" encoding="utf-8"?>
<!-- Generator: Adobe Illustrator 18.0.0, SVG Export Plug-In . SVG Version: 6.00 Build 0)  -->
<!DOCTYPE svg PUBLIC "-//W3C//DTD SVG 1.1//EN" "http://www.w3.org/Graphics/SVG/1.1/DTD/svg11.dtd">
<svg version="1.1" id="Capa_1" xmlns="http://www.w3.org/2000/svg" xmlns:xlink="http://www.w3.org/1999/xlink" x="0px" y="0px"
	 viewBox="0 0 612 792" enable-background="new 0 0 612 792" xml:space="preserve">
<path fill="#FFFFFF" stroke="#000000" stroke-miterlimit="10" d="M236.9,359.3c-23,0-41.6,18.6-41.6,41.6v121.3
	c0,23,18.6,41.6,41.6,41.6h6.2c23,0,41.6-18.6,41.6-41.6V400.9c0-23-18.6-41.6-41.6-41.6L236.9,359.3L236.9,359.3z"/>
<path fill="#FFFFFF" stroke="#000000" stroke-miterlimit="10" d="M373.3,563.9h6.2c23,0,41.6-18.6,41.6-41.6V331.5
	c0-23-18.6-41.6-41.6-41.6h-6.2c-23,0-41.6,18.6-41.6,41.6v190.7C331.7,545.2,350.3,563.9,373.3,563.9z"/>
<path fill="#FFFFFF" stroke="#000000" stroke-miterlimit="10" d="M515.8,192.9h-6.2c-23,0-41.6,18.6-41.6,41.6v287.8
	c0,23,18.6,41.6,41.6,41.6h6.2c23,0,41.6-18.6,41.6-41.6V234.5C557.5,211.5,538.8,192.9,515.8,192.9z"/>
<path fill="#FFFFFF" stroke="#000000" stroke-miterlimit="10" d="M156.5,522.2v-71.7c0-23-18.6-41.6-41.6-41.6h-6.2
	c-23,0-41.6,18.6-41.6,41.6v71.7c0,23,18.6,41.6,41.6,41.6h6.2C137.9,563.9,156.5,545.2,156.5,522.2z"/>
<path fill="#FFFFFF" stroke="#000000" stroke-miterlimit="10" d="M80,362.3l31-31l31,31c5.1,5.1,13.5,5.1,18.6,0
	c5.1-5.1,5.1-13.5,0-18.6l-31-31l31-31c5.1-5.1,5.1-13.5,0-18.6s-13.5-5.1-18.6,0l-31,31l-31-31c-5.1-5.1-13.5-5.1-18.6,0
	s-5.1,13.4,0,18.6l31,31l-31,31c-5.1,5.1-5.1,13.5,0,18.6C66.5,367.5,74.8,367.5,80,362.3z"/>
</svg>
